HIERARCHY
ROOT reference
{
  OFFSET 0 0 0
  CHANNELS 6 Xposition Yposition Zposition Zrotation Xrotation Yrotation
  JOINT Hips
  {
    OFFSET 366.965 89.8555 201.872
    CHANNELS 3 Zrotation Xrotation Yrotation
    JOINT RightUpLeg
    {
      OFFSET -9.27238 -1.56811 0.0123499
      CHANNELS 3 Zrotation Xrotation Yrotation
      JOINT RightLeg
      {
        OFFSET 0.00682797 -41.8882 0.0419786
        CHANNELS 3 Zrotation Xrotation Yrotation
        JOINT RightFoot
        {
          OFFSET 0.530869 -42.1265 0.242224
          CHANNELS 3 Zrotation Xrotation Yrotation
          End Site
          {
            OFFSET 0 -7.69 17.5
          }
        }
      }
    }
    JOINT LeftUpLeg
    {
      OFFSET 9.28391 -1.61639 -0.0258413
      CHANNELS 3 Zrotation Xrotation Yrotation
      JOINT LeftLeg
      {
        OFFSET 0.0291166 -41.8727 -0.014263
        CHANNELS 3 Zrotation Xrotation Yrotation
        JOINT LeftFoot
        {
          OFFSET -0.125672 -41.4933 -0.195947
          CHANNELS 3 Zrotation Xrotation Yrotation
          End Site
          {
            OFFSET 0 -7.69 17.5
          }
        }
      }
    }
    JOINT Spine
    {
      OFFSET 0.0325614 14.2957 0.0242834
      CHANNELS 3 Zrotation Xrotation Yrotation
      JOINT Spine1
      {
        OFFSET 0.00746153 9.71731 0.0172653
        CHANNELS 3 Zrotation Xrotation Yrotation
        JOINT Spine2
        {
          OFFSET 0.0283815 10.1155 -0.00252583
          CHANNELS 3 Zrotation Xrotation Yrotation
          JOINT Spine3
          {
            OFFSET 0.0279172 9.71841 -0.00465252
            CHANNELS 3 Zrotation Xrotation Yrotation
            JOINT Neck
            {
              OFFSET 0.0182001 10.3765 0.0184284
              CHANNELS 3 Zrotation Xrotation Yrotation
              JOINT Head
              {
                OFFSET 0.0113688 9.47343 0.00632939
                CHANNELS 3 Zrotation Xrotation Yrotation
                End Site
                {
                  OFFSET 0 15.95 0
                }
              }
            }
            JOINT RightShoulder
            {
              OFFSET -3.17351 6.93492 0.00767284
              CHANNELS 3 Zrotation Xrotation Yrotation
              JOINT RightArm
              {
                OFFSET -12.7835 -0.0133269 0.0174019
                CHANNELS 3 Zrotation Xrotation Yrotation
                JOINT RightForeArm
                {
                  OFFSET -26.5112 -0.0170228 0.0247955
                  CHANNELS 3 Zrotation Xrotation Yrotation
                  JOINT RightHand
                  {
                    OFFSET -25.9918 -0.0199622 0.0218897
                    CHANNELS 3 Zrotation Xrotation Yrotation
                    JOINT RightHandThumb1
                    {
                      OFFSET -2.48905 0.190105 3.12053
                      CHANNELS 3 Zrotation Xrotation Yrotation
                      JOINT RightHandThumb2
                      {
                        OFFSET -3.68274 0 0
                        CHANNELS 3 Zrotation Xrotation Yrotation
                        JOINT RightHandThumb3
                        {
                          OFFSET -2.55832 0 0
                          CHANNELS 3 Zrotation Xrotation Yrotation
                          End Site
                          {
                            OFFSET -2.194 0 0
                          }
                        }
                      }
                    }
                    JOINT RightInHandIndex
                    {
                      OFFSET -3.22368 0.508421 1.97842
                      CHANNELS 3 Zrotation Xrotation Yrotation
                      JOINT RightHandIndex1
                      {
                        OFFSET -5.21684 -0.091368 0.999158
                        CHANNELS 3 Zrotation Xrotation Yrotation
                        JOINT RightHandIndex2
                        {
                          OFFSET -3.61937 0 0
                          CHANNELS 3 Zrotation Xrotation Yrotation
                          JOINT RightHandIndex3
                          {
                            OFFSET -2.0521 0 0
                            CHANNELS 3 Zrotation Xrotation Yrotation
                            End Site
                            {
                              OFFSET -1.805 0 0
                            }
                          }
                        }
                      }
                    }
                    JOINT RightInHandMiddle
                    {
                      OFFSET -3.38211 0.517263 0.756737
                      CHANNELS 3 Zrotation Xrotation Yrotation
                      JOINT RightHandMiddle1
                      {
                        OFFSET -5.17411 -0.084 0.313895
                        CHANNELS 3 Zrotation Xrotation Yrotation
                        JOINT RightHandMiddle2
                        {
                          OFFSET -3.94947 0 0
                          CHANNELS 3 Zrotation Xrotation Yrotation
                          JOINT RightHandMiddle3
                          {
                            OFFSET -2.47579 0 0
                            CHANNELS 3 Zrotation Xrotation Yrotation
                            End Site
                            {
                              OFFSET -1.975 0 0
                            }
                          }
                        }
                      }
                    }
                    JOINT RightInHandRing
                    {
                      OFFSET -3.36516 0.537895 -0.128947
                      CHANNELS 3 Zrotation Xrotation Yrotation
                      JOINT RightHandRing1
                      {
                        OFFSET -4.63474 -0.022105 -0.478947
                        CHANNELS 3 Zrotation Xrotation Yrotation
                        JOINT RightHandRing2
                        {
                          OFFSET -3.44238 0 0
                          CHANNELS 3 Zrotation Xrotation Yrotation
                          JOINT RightHandRing3
                          {
                            OFFSET -2.3881 0 0
                            CHANNELS 3 Zrotation Xrotation Yrotation
                            End Site
                            {
                              OFFSET -1.857 0 0
                            }
                          }
                        }
                      }
                    }
                    JOINT RightInHandPinky
                    {
                      OFFSET -3.16105 0.469368 -1.20179
                      CHANNELS 3 Zrotation Xrotation Yrotation
                      JOINT RightHandPinky1
                      {
                        OFFSET -4.14105 -0.022105 -1.09053
                        CHANNELS 3 Zrotation Xrotation Yrotation
                        JOINT RightHandPinky2
                        {
                          OFFSET -2.75653 0 0
                          CHANNELS 3 Zrotation Xrotation Yrotation
                          JOINT RightHandPinky3
                          {
                            OFFSET -1.74189 0 0
                            CHANNELS 3 Zrotation Xrotation Yrotation
                            End Site
                            {
                              OFFSET -1.645 0 0
                            }
                          }
                        }
                      }
                    }
                  }
                }
              }
            }
            JOINT LeftShoulder
            {
              OFFSET 3.23633 6.91116 -0.0162332
              CHANNELS 3 Zrotation Xrotation Yrotation
              JOINT LeftArm
              {
                OFFSET 12.8112 -0.0136289 -0.0286256
                CHANNELS 3 Zrotation Xrotation Yrotation
                JOINT LeftForeArm
                {
                  OFFSET 26.502 -0.0235899 -0.00806802
                  CHANNELS 3 Zrotation Xrotation Yrotation
                  JOINT LeftHand
                  {
                    OFFSET 25.9974 -0.0321613 -0.027004
                    CHANNELS 3 Zrotation Xrotation Yrotation
                    JOINT LeftHandThumb1
                    {
                      OFFSET 2.48905 0.190105 3.12053
                      CHANNELS 3 Zrotation Xrotation Yrotation
                      JOINT LeftHandThumb2
                      {
                        OFFSET 3.68274 0 0
                        CHANNELS 3 Zrotation Xrotation Yrotation
                        JOINT LeftHandThumb3
                        {
                          OFFSET 2.55832 0 0
                          CHANNELS 3 Zrotation Xrotation Yrotation
                          End Site
                          {
                            OFFSET 2.194 0 0
                          }
                        }
                      }
                    }
                    JOINT LeftInHandIndex
                    {
                      OFFSET 3.22368 0.508421 1.97842
                      CHANNELS 3 Zrotation Xrotation Yrotation
                      JOINT LeftHandIndex1
                      {
                        OFFSET 5.21684 -0.091368 0.999158
                        CHANNELS 3 Zrotation Xrotation Yrotation
                        JOINT LeftHandIndex2
                        {
                          OFFSET 3.61937 0 0
                          CHANNELS 3 Zrotation Xrotation Yrotation
                          JOINT LeftHandIndex3
                          {
                            OFFSET 2.0521 0 0
                            CHANNELS 3 Zrotation Xrotation Yrotation
                            End Site
                            {
                              OFFSET 1.805 0 0
                            }
                          }
                        }
                      }
                    }
                    JOINT LeftInHandMiddle
                    {
                      OFFSET 3.38211 0.517263 0.756737
                      CHANNELS 3 Zrotation Xrotation Yrotation
                      JOINT LeftHandMiddle1
                      {
                        OFFSET 5.17411 -0.084 0.313895
                        CHANNELS 3 Zrotation Xrotation Yrotation
                        JOINT LeftHandMiddle2
                        {
                          OFFSET 3.94947 0 0
                          CHANNELS 3 Zrotation Xrotation Yrotation
                          JOINT LeftHandMiddle3
                          {
                            OFFSET 2.47579 0 0
                            CHANNELS 3 Zrotation Xrotation Yrotation
                            End Site
                            {
                              OFFSET 1.975 0 0
                            }
                          }
                        }
                      }
                    }
                    JOINT LeftInHandRing
                    {
                      OFFSET 3.36516 0.537895 -0.128947
                      CHANNELS 3 Zrotation Xrotation Yrotation
                      JOINT LeftHandRing1
                      {
                        OFFSET 4.63474 -0.022105 -0.478947
                        CHANNELS 3 Zrotation Xrotation Yrotation
                        JOINT LeftHandRing2
                        {
                          OFFSET 3.44238 0 0
                          CHANNELS 3 Zrotation Xrotation Yrotation
                          JOINT LeftHandRing3
                          {
                            OFFSET 2.3881 0 0
                            CHANNELS 3 Zrotation Xrotation Yrotation
                            End Site
                            {
                              OFFSET 1.857 0 0
                            }
                          }
                        }
                      }
                    }
                    JOINT LeftInHandPinky
                    {
                      OFFSET 3.16105 0.469368 -1.20179
                      CHANNELS 3 Zrotation Xrotation Yrotation
                      JOINT LeftHandPinky1
                      {
                        OFFSET 4.14105 -0.022105 -1.09053
                        CHANNELS 3 Zrotation Xrotation Yrotation
                        JOINT LeftHandPinky2
                        {
                          OFFSET 2.75653 0 0
                          CHANNELS 3 Zrotation Xrotation Yrotation
                          JOINT LeftHandPinky3
                          {
                            OFFSET 1.74189 0 0
                            CHANNELS 3 Zrotation Xrotation Yrotation
                            End Site
                            {
                              OFFSET 1.645 0 0
                            }
                          }
                        }
                      }
                    }
                  }
                }
              }
            }
          }
        }
      }
    }
  }
}
MOTION
Frames: 2
Frame Time: 0.00833333
3.000000000000000000e+02 0.000000000000000000e+00 0.000000000000000000e+00 0.000000000000000000e+00 0.000000000000000000e+00 0.000000000000000000e+00 1.107688640417544244e-02 8.782240747249394491e-03 1.311599945435430910e-02 -1.740676563399386548e-02 -3.489442075183592142e-03 -2.295679079140490117e-02 -1.929242884911721093e-02 6.605588197557224484e-02 7.949095401741226863e-02 3.511334524024609799e-02 -7.170723782093149645e-02 -6.479287877346734392e-02 -1.178370852412932712e-02 -1.725105876216797077e-02 -1.720030534630383537e-02 -6.328219331080568721e-03 -7.884811808039228877e-04 8.344851462389620000e-03 1.332988661466871522e-04 5.699936986772085983e-03 -9.384477809496617751e-03 -8.068334584835195819e-03 -1.042121662876502840e-03 2.149739024206516035e-03 -2.410591037698948686e-03 -2.358171010196695970e-03 1.112638885118008829e-03 -4.389578252471019668e-03 -1.782330965188550008e-04 1.173920352659211901e-03 -7.186438143657190489e-05 2.140232995531101616e-04 -8.071737140715647412e-05 -6.774616054038718610e-04 -6.558289575781015663e-04 2.872175643653381277e-03 1.283867054535056109e-03 6.072711996694055148e-04 -2.687453621535654952e-02 5.108560725525957552e-02 -6.472052397905096732e-03 -1.018144697518797923e-02 -1.004522759547532978e-01 5.593219014471832728e-02 5.251427118918244874e-02 -5.188418093078024373e-01 8.346546405541775682e-02 -5.659630311137301417e-01 2.950809653232421836e-01 -2.448665266378503846e-01 2.634713968525975725e-01 0.000000000000000000e+00 0.000000000000000000e+00 0.000000000000000000e+00 2.836837029279487883e-16 -2.254490805715810345e-15 0.000000000000000000e+00 -3.292950690249128060e-15 -4.593920325712071854e-15 0.000000000000000000e+00 -8.954107716454377772e-16 -3.593370580342368144e-15 9.741179742540642806e-16 0.000000000000000000e+00 0.000000000000000000e+00 0.000000000000000000e+00 0.000000000000000000e+00 2.014062164478224361e-15 9.340293607941311573e-15 0.000000000000000000e+00 -2.378033211360850855e-15 6.989162193609279793e-15 -8.954107716454377772e-16 -3.593370580342368144e-15 9.741179742540642806e-16 0.000000000000000000e+00 1.194721408277052800e-15 6.011706710183911699e-15 0.000000000000000000e+00 2.288640987981927226e-15 9.713511990744675995e-15 0.000000000000000000e+00 9.630733345887479557e-16 3.966311488109147034e-15 -8.954107716454377772e-16 -3.593370580342368144e-15 9.741179742540642806e-16 0.000000000000000000e+00 0.000000000000000000e+00 0.000000000000000000e+00 0.000000000000000000e+00 6.125701759998698974e-15 9.796484019780324575e-15 0.000000000000000000e+00 -2.717994003685648360e-15 8.562496700773327053e-15 -8.954107716454377772e-16 -3.593370580342368144e-15 9.741179742540642806e-16 0.000000000000000000e+00 0.000000000000000000e+00 0.000000000000000000e+00 0.000000000000000000e+00 3.828887666978909851e-15 5.706091841609351247e-15 0.000000000000000000e+00 3.866223101831245310e-15 5.848126209481448323e-15 -1.060734146964923547e-02 -3.298101472201241113e-02 -1.411595922866789796e-02 8.778131163195600217e-02 6.007751392074102414e-02 -2.383226976515263190e-02 2.164852046023109378e-01 -5.021445333318307752e-02 1.860673045108042212e-01 1.453186794664317050e-01 5.684847980789782540e-03 1.229163213268166660e-01 0.000000000000000000e+00 0.000000000000000000e+00 0.000000000000000000e+00 -2.880073255189013128e-15 -4.065696035546358261e-16 0.000000000000000000e+00 2.672786481290658515e-15 2.778751422739961016e-15 0.000000000000000000e+00 -3.075615812061193001e-15 1.100884523246514879e-15 8.268226037881195512e-16 0.000000000000000000e+00 0.000000000000000000e+00 0.000000000000000000e+00 0.000000000000000000e+00 -5.057033275711815876e-16 1.919219336779527197e-15 0.000000000000000000e+00 3.108474262681248015e-16 4.418240806645800937e-15 -3.075615812061193001e-15 1.100884523246514879e-15 8.268226037881195512e-16 0.000000000000000000e+00 1.145611746763620407e-15 -8.753428571471380983e-16 0.000000000000000000e+00 -1.885486742442956276e-15 4.795765075150236514e-15 0.000000000000000000e+00 -6.938913503047320117e-16 4.109643143283861188e-15 -3.075615812061193001e-15 1.100884523246514879e-15 8.268226037881195512e-16 0.000000000000000000e+00 0.000000000000000000e+00 0.000000000000000000e+00 0.000000000000000000e+00 3.682956289792005849e-15 3.615512112046294803e-15 0.000000000000000000e+00 -1.634445802606454738e-15 7.758178376545535175e-15 -3.075615812061193001e-15 1.100884523246514879e-15 8.268226037881195512e-16 0.000000000000000000e+00 0.000000000000000000e+00 0.000000000000000000e+00 0.000000000000000000e+00 -1.317354302703181000e-15 1.632185965800052809e-15 0.000000000000000000e+00 9.395831668766428984e-16 5.170617673372196584e-15
3.000000000000000000e+02 0.000000000000000000e+00 0.000000000000000000e+00 0.000000000000000000e+00 0.000000000000000000e+00 0.000000000000000000e+00 1.790326897065938963e-03 2.313420326117838523e-03 8.808267671662418224e-03 -8.810774901740221071e-03 6.917540733950259743e-03 -1.447742368458484162e-02 -7.556229926634133384e-04 3.909462486138748014e-04 1.029856616436777839e-02 4.800028918716134005e-03 -8.498449869996985845e-03 -9.111201132214983081e-03 -6.025654536268145421e-03 -2.368884679694045758e-03 -1.184644536663245068e-02 -3.302545943582319531e-03 -1.284646232041683576e-03 -1.216666815488750457e-03 4.069405239916883946e-06 -2.290371148806275492e-05 1.741812790797613508e-03 -3.185865162665602306e-03 2.656301069427126176e-03 -1.658024867315456563e-03 -1.445143229974456441e-03 -5.823284338807505674e-04 3.282519660862263694e-04 -1.962363996921341440e-03 1.167273554417824722e-03 -6.039165076559741387e-04 7.692167896059552484e-04 -5.129224129000061708e-05 -1.873116670815178281e-04 5.748745353756934970e-04 -3.395515579606859027e-04 7.659658180993852896e-04 1.489502370214111464e-02 -3.037857762437415864e-04 -2.645425589137787026e-03 2.035344639019325691e-02 -9.879497736361469301e-03 -1.360060098044937014e-02 -1.610645884707416139e-02 3.481615257899561833e-02 1.310298367135448883e-03 -1.134821502964294959e-01 -1.792978743273230396e-02 -6.563515694502272679e-02 8.346640402258245772e-02 -5.488324055134748830e-02 5.866310122015826189e-02 0.000000000000000000e+00 0.000000000000000000e+00 0.000000000000000000e+00 -4.874880889399957766e-17 -2.576449391134920377e-15 0.000000000000000000e+00 -3.224827724647010382e-15 -4.035467070443956533e-15 0.000000000000000000e+00 -4.353101445945621185e-16 -2.482119200880575389e-15 1.216262455419202774e-15 0.000000000000000000e+00 0.000000000000000000e+00 0.000000000000000000e+00 0.000000000000000000e+00 7.183907244193761297e-17 1.548389501987113398e-15 0.000000000000000000e+00 -3.577121119082711583e-17 1.779953766499369161e-15 -4.353101445945621185e-16 -2.482119200880575389e-15 1.216262455419202774e-15 0.000000000000000000e+00 9.013130242274806385e-16 2.979823016645814530e-15 0.000000000000000000e+00 1.311633809696275023e-15 3.901027087436844918e-15 0.000000000000000000e+00 1.392558970524347837e-15 -4.253213867345743018e-15 -4.353101445945621185e-16 -2.482119200880575389e-15 1.216262455419202774e-15 0.000000000000000000e+00 0.000000000000000000e+00 0.000000000000000000e+00 0.000000000000000000e+00 3.473892265472938697e-16 6.186278466449378376e-15 0.000000000000000000e+00 3.315367146030165560e-16 2.133767432060343786e-15 -4.353101445945621185e-16 -2.482119200880575389e-15 1.216262455419202774e-15 0.000000000000000000e+00 0.000000000000000000e+00 0.000000000000000000e+00 0.000000000000000000e+00 1.854021085289718537e-15 4.611076054963126765e-16 0.000000000000000000e+00 2.996647089669254705e-15 -1.321085613807804904e-15 -4.629920011845468225e-03 -3.372100850950706438e-03 -1.109934986010304575e-02 8.547831881007331156e-02 3.238846623241830452e-02 -2.554704555986965497e-02 1.981937927856878001e-01 -4.519294266800478327e-02 1.802483684479400383e-01 -6.140309523430154820e-02 -1.237084930136551075e-01 -4.907354471251079014e-02 0.000000000000000000e+00 0.000000000000000000e+00 0.000000000000000000e+00 -7.249456122246759847e-16 2.648632955511720332e-15 0.000000000000000000e+00 4.781764359851944047e-15 1.180663996558418394e-15 0.000000000000000000e+00 -1.985452867041549367e-15 1.961427270666122138e-15 7.039120578735231319e-16 0.000000000000000000e+00 0.000000000000000000e+00 0.000000000000000000e+00 0.000000000000000000e+00 -1.262877954598811865e-16 2.005945425710871967e-15 0.000000000000000000e+00 6.781722873835918547e-16 2.136267090433483044e-15 -1.985452867041549367e-15 1.961427270666122138e-15 7.039120578735231319e-16 0.000000000000000000e+00 1.355844486665589220e-15 4.626683677700497482e-16 0.000000000000000000e+00 -1.233265134889978072e-15 3.667654702882759936e-15 0.000000000000000000e+00 -4.191525773439151397e-16 1.834598826847749378e-15 -1.985452867041549367e-15 1.961427270666122138e-15 7.039120578735231319e-16 0.000000000000000000e+00 0.000000000000000000e+00 0.000000000000000000e+00 0.000000000000000000e+00 -6.299683061497645412e-16 1.653133634949835388e-15 0.000000000000000000e+00 -2.100425457172050922e-15 1.228462536085978053e-15 -1.985452867041549367e-15 1.961427270666122138e-15 7.039120578735231319e-16 0.000000000000000000e+00 0.000000000000000000e+00 0.000000000000000000e+00 0.000000000000000000e+00 1.276396079382787052e-15 1.931194110449161010e-15 0.000000000000000000e+00 5.224416957818870353e-16 1.823805454650277823e-15
